<svg xmlns="http://www.w3.org/2000/svg" version="1.1" xmlns:xlink="http://www.w3.org/1999/xlink" xmlns:svgjs="http://svgjs.dev/svgjs" width="2000" height="348" viewBox="0 0 2000 348"><g transform="matrix(1,0,0,1,-1.2121212121212466,-11.524935849751245)"><svg viewBox="0 0 396 69" data-background-color="#141d2f" preserveAspectRatio="xMidYMid meet" height="348" width="2000" xmlns="http://www.w3.org/2000/svg" xmlns:xlink="http://www.w3.org/1999/xlink"><g id="tight-bounds" transform="matrix(1,0,0,1,0.2400000000000091,2.287050732215846)"><svg viewBox="0 0 395.52 66.91520739443796" height="66.91520739443796" width="395.52"><g><svg viewBox="0 0 498.67303223132404 84.36693308498255" height="66.91520739443796" width="395.52"><g transform="matrix(1,0,0,1,0,1.485476631742344)"><svg viewBox="0 0 395.5199999999999 81.39597982149786" height="81.39597982149786" width="395.5199999999999"><g id="textblocktransform"><svg viewBox="0 0 395.5199999999999 81.39597982149786" height="81.39597982149786" width="395.5199999999999" id="textblock"><g><svg viewBox="0 0 395.5199999999999 81.39597982149786" height="81.39597982149786" width="395.5199999999999"><g transform="matrix(1,0,0,1,0,0)"><svg width="395.5199999999999" viewBox="2.88 -38.35 188.73000000000002 38.84" height="81.39597982149786" data-palette-color="#00bee8"><path d="M14.89 0.49L14.89 0.49Q11.23 0.49 8.53-1.2 5.83-2.88 4.36-5.97 2.88-9.06 2.88-13.26L2.88-13.26Q2.88-17.48 4.36-20.56 5.83-23.63 8.53-25.32 11.23-27 14.89-27L14.89-27Q17.8-27 19.7-26.16 21.61-25.32 22.73-24.02 23.85-22.73 24.41-21.39L24.41-21.39 21.66-19.8 21.34-19.8Q20.43-21.46 19.01-22.56 17.58-23.66 15.09-23.66L15.09-23.66Q12.57-23.66 10.86-22.42 9.16-21.19 8.3-18.86 7.45-16.53 7.45-13.26L7.45-13.26Q7.45-10.01 8.3-7.68 9.16-5.35 10.85-4.1 12.55-2.86 15.09-2.86L15.09-2.86Q17.58-2.86 18.99-3.92 20.41-4.98 21.31-6.64L21.31-6.64 21.63-6.64 24.41-5.13Q23.85-3.78 22.73-2.49 21.61-1.2 19.7-0.35 17.8 0.49 14.89 0.49ZM38.16 0.2L38.16 0.2Q35.81 0.2 34.21-0.4 32.61-1 31.8-2.67 30.98-4.35 30.98-7.57L30.98-7.57 30.98-37.6 35.4-38.09 35.4-7.62Q35.4-5.64 35.64-4.74 35.89-3.83 36.63-3.54 37.38-3.25 38.84-3.13L38.84-3.13Q39.23-3.1 39.6-3.08 39.96-3.05 40.35-3.03L40.35-3.03 40.01 0.2Q39.55 0.2 39.08 0.2 38.62 0.2 38.16 0.2ZM51.19 0L46.75 0 46.75-26.42 51.19-26.42 51.19 0ZM48.97-32.47L48.97-32.47Q47.48-32.47 46.67-33.25 45.87-34.03 45.87-35.45L45.87-35.45Q45.87-36.82 46.67-37.59 47.48-38.35 48.97-38.35L48.97-38.35Q50.46-38.35 51.26-37.59 52.07-36.82 52.07-35.45L52.07-35.45Q52.07-34.03 51.26-33.25 50.46-32.47 48.97-32.47ZM70.04 0.49L70.04 0.49Q66.37 0.49 63.68-1.2 60.98-2.88 59.5-5.97 58.02-9.06 58.02-13.26L58.02-13.26Q58.02-17.48 59.5-20.56 60.98-23.63 63.68-25.32 66.37-27 70.04-27L70.04-27Q72.94-27 74.85-26.16 76.75-25.32 77.87-24.02 79-22.73 79.56-21.39L79.56-21.39 76.8-19.8 76.48-19.8Q75.58-21.46 74.15-22.56 72.72-23.66 70.23-23.66L70.23-23.66Q67.72-23.66 66.01-22.42 64.3-21.19 63.44-18.86 62.59-16.53 62.59-13.26L62.59-13.26Q62.59-10.01 63.44-7.68 64.3-5.35 66-4.1 67.69-2.86 70.23-2.86L70.23-2.86Q72.72-2.86 74.14-3.92 75.55-4.98 76.46-6.64L76.46-6.64 76.77-6.64 79.56-5.13Q79-3.78 77.87-2.49 76.75-1.2 74.85-0.35 72.94 0.49 70.04 0.49ZM90.27 0L85.83 0 85.83-37.6 90.27-38.09 90.27-18.68 90.13-13.48 102.19-26.42 107.22-26.42 107.22-25.85 96.38-14.43 108-0.61 108 0 103.24 0 93.23-12.3 90.27-9.77 90.27 0ZM129.87 0L125.42 0 125.42-26.42 129.14-26.42 129.6-21.24Q130.82-24.27 132.94-25.63 135.07-27 137.66-27L137.66-27Q139.68-27 141.24-26.25 142.81-25.49 143.86-24.1 144.91-22.71 145.4-20.78L145.4-20.78Q146.69-23.97 148.97-25.49 151.25-27 154.09-27L154.09-27Q158.16-27 160.34-24.45 162.51-21.9 162.51-17.02L162.51-17.02 162.51 0 158.09 0 158.09-15.72Q158.09-17.65 157.75-19.48 157.41-21.31 156.37-22.5 155.33-23.68 153.23-23.68L153.23-23.68Q151.6-23.68 149.97-22.62 148.35-21.56 147.28-19.52 146.2-17.48 146.2-14.55L146.2-14.55 146.2 0 141.76 0 141.76-14.89Q141.76-17.94 141.26-19.89 140.76-21.83 139.66-22.75 138.56-23.68 136.78-23.68L136.78-23.68Q134.8-23.68 133.36-22.62 131.92-21.56 131.04-19.73 130.16-17.9 129.87-15.58L129.87-15.58 129.87 0ZM181.84 0.49L181.84 0.49Q178.28 0.49 175.41-1.15 172.54-2.78 170.87-5.85 169.2-8.91 169.2-13.13L169.2-13.13Q169.2-17.53 170.83-20.63 172.47-23.73 175.23-25.37 177.99-27 181.31-27L181.31-27Q184.55-27 186.85-25.56 189.14-24.12 190.38-21.46 191.61-18.8 191.61-15.14L191.61-15.14Q191.61-14.77 191.55-14.14 191.49-13.5 191.44-12.99 191.39-12.48 191.39-12.43L191.39-12.43 173.74-12.43Q173.93-9.06 175.09-6.93 176.25-4.81 178.14-3.81 180.04-2.81 182.4-2.81L182.4-2.81Q184.67-2.81 186.29-3.45 187.9-4.1 189.53-5.03L189.53-5.03 189.85-5.03 190.88-2.12Q189.24-1 186.93-0.26 184.63 0.49 181.84 0.49ZM173.81-15.31L173.81-15.31 187.8-15.31Q187.75-19.29 186.23-21.5 184.7-23.71 181.53-23.71L181.53-23.71Q178.33-23.71 176.24-21.45 174.15-19.19 173.81-15.31Z" opacity="1" transform="matrix(1,0,0,1,0,0)" fill="#00bee8" class="wordmark-text-0" data-fill-palette-color="primary" id="text-0"></path></svg></g></svg></g></svg></g></svg></g><g transform="matrix(1,0,0,1,414.7356373323399,0)"><svg viewBox="0 0 83.9373948989842 84.36693308498255" height="84.36693308498255" width="83.9373948989842"><g><svg xmlns="http://www.w3.org/2000/svg" xml:space="preserve" viewBox="2.4709300936387177 0.9822127388422249 95.5289310246014 96.01778731793826" x="0" y="0" height="84.36693308498255" width="83.9373948989842" class="icon-icon-0" data-fill-palette-color="accent" id="icon-0"><path d="M87 97q-0.064 0-0.128-0.004a2 2 0 0 1-1.381-0.684L67.632 75.775c-6.961 17.227-7.043 17.226-8.629 17.226a2.01 2.01 0 0 1-1.856-1.246C34.878 37.094 35.18 36.115 35.445 35.252c0.258-0.839 1.125-1.443 2.002-1.443 1.246 0 6.232 1.599 51.295 20.701 2.426 1.028 3.997 1.695 4.311 1.821q0.16 0.058 0.307 0.141a2 2 0 0 1-0.798 3.734c-1.265 0.364-7.69 2.917-14.093 5.532l18.977 19.881a2 2 0 0 1-0.117 2.876l-9 8A2 2 0 0 1 87 97M67 70a2 2 0 0 1 1.509 0.688l18.674 21.475 5.939-5.28-19.568-20.502a2 2 0 0 1 0.684-3.231c6.015-2.477 9.983-4.069 12.622-5.095C62.388 47.683 46.827 41.249 40.414 38.85c3.041 8.283 11.814 30.17 18.69 47.098 1.565-3.703 3.907-9.411 6.042-14.696A2 2 0 0 1 67 70M21.958 22.942c-0.64 0-1.28-0.244-1.768-0.732l-8.287-8.289a2.501 2.501 0 0 1 3.536-3.536l8.287 8.289a2.501 2.501 0 0 1-1.768 4.268M16.322 32.706q-0.322 0-0.649-0.086l-11.32-3.035a2.5 2.5 0 1 1 1.295-4.829l11.321 3.035a2.5 2.5 0 0 1-0.647 4.915M4.999 47.011a2.5 2.5 0 0 1-0.646-4.916l11.321-3.032a2.5 2.5 0 0 1 1.294 4.83L5.647 46.926a2.6 2.6 0 0 1-0.648 0.085M13.669 62.028a2.5 2.5 0 0 1-1.768-4.267l8.289-8.287a2.5 2.5 0 0 1 3.536 3.535l-8.289 8.286a2.5 2.5 0 0 1-1.768 0.733M28.688 70.699q-0.322 0-0.649-0.086a2.5 2.5 0 0 1-1.767-3.062l3.035-11.32a2.507 2.507 0 0 1 3.062-1.768 2.5 2.5 0 0 1 1.767 3.062l-3.035 11.32a2.5 2.5 0 0 1-2.413 1.854M58.394 32.706a2.5 2.5 0 0 1-0.645-4.915l11.319-3.035a2.5 2.5 0 0 1 1.294 4.829L59.043 32.62a2.5 2.5 0 0 1-0.649 0.086M52.759 22.941a2.5 2.5 0 0 1-1.768-4.268l8.286-8.289a2.5 2.5 0 0 1 3.537 3.536l-8.286 8.289a2.5 2.5 0 0 1-1.769 0.732M42.997 17.304a2.497 2.497 0 0 1-2.416-3.147l3.032-11.321a2.5 2.5 0 1 1 4.83 1.294L45.41 15.45a2.5 2.5 0 0 1-2.413 1.854M31.72 17.304a2.5 2.5 0 0 1-2.413-1.853L26.272 4.13a2.5 2.5 0 0 1 4.829-1.295l3.035 11.321a2.5 2.5 0 0 1-2.416 3.148" fill="#00bee8" data-fill-palette-color="accent"></path></svg></g></svg></g></svg></g><defs></defs></svg><rect width="395.52" height="66.91520739443796" fill="none" stroke="none" visibility="hidden"></rect></g></svg></g></svg>