<svg xmlns="http://www.w3.org/2000/svg" version="1.1" xmlns:xlink="http://www.w3.org/1999/xlink" xmlns:svgjs="http://svgjs.dev/svgjs" width="2000" height="1247" viewBox="0 0 2000 1247"><g transform="matrix(1,0,0,1,-1.2121212121212466,0.504858299595071)"><svg viewBox="0 0 396 247" data-background-color="#ffffff" preserveAspectRatio="xMidYMid meet" height="1247" width="2000" xmlns="http://www.w3.org/2000/svg" xmlns:xlink="http://www.w3.org/1999/xlink"><g id="tight-bounds" transform="matrix(1,0,0,1,0.2400000000000091,-0.09999999999999432)"><svg viewBox="0 0 395.52 247.2" height="247.2" width="395.52"><g><svg></svg></g><g><svg viewBox="0 0 395.52 247.2" height="247.2" width="395.52"><g transform="matrix(1,0,0,1,75.54432000000001,94.04170848430493)"><svg viewBox="0 0 244.43135999999996 59.11658303139013" height="59.11658303139013" width="244.43135999999996"><g><svg viewBox="0 0 244.43135999999996 59.11658303139013" height="59.11658303139013" width="244.43135999999996"><g><svg viewBox="0 0 244.43135999999996 59.11658303139013" height="59.11658303139013" width="244.43135999999996"><g><svg viewBox="0 0 244.43135999999996 59.11658303139013" height="59.11658303139013" width="244.43135999999996"><g id="textblocktransform"><svg viewBox="0 0 244.43135999999996 59.11658303139013" height="59.11658303139013" width="244.43135999999996" id="textblock"><g><svg viewBox="0 0 244.43135999999996 59.11658303139013" height="59.11658303139013" width="244.43135999999996"><g transform="matrix(1,0,0,1,0,0)"><svg width="244.43135999999996" viewBox="0.55 -40.05 167.23999999999998 40.449999999999996" height="59.11658303139013" data-palette-color="#ffffff"><path d="M36.45-35.1L46.5-35.1 40.3 0 31.75 0 35.5-21.05 23.9 0 17 0 12.8-21.15 9.1 0 0.55 0 6.75-35.1 16.85-35.1 22.45-10.8 36.45-35.1ZM47.25-14Q48-18.3 50.2-21.55 52.4-24.8 55.5-26.55 58.6-28.3 62.05-28.3L62.05-28.3Q65-28.3 67-27.1 69-25.9 69.9-23.95L69.9-23.95 70.6-27.9 79.15-27.9 74.2 0 65.65 0 66.4-3.95Q64.8-2 62.35-0.8 59.9 0.4 56.95 0.4L56.95 0.4Q54 0.4 51.72-0.95 49.45-2.3 48.2-4.78 46.95-7.25 46.95-10.6L46.95-10.6Q46.95-12.2 47.25-14L47.25-14ZM68.15-13.95Q68.3-14.85 68.3-15.6L68.3-15.6Q68.3-18.05 66.87-19.45 65.45-20.85 63.25-20.85L63.25-20.85Q60.7-20.85 58.6-19.03 56.5-17.2 55.95-14L55.95-14Q55.8-13.1 55.8-12.35L55.8-12.35Q55.8-9.9 57.22-8.47 58.65-7.05 60.8-7.05L60.8-7.05Q63.35-7.05 65.45-8.9 67.55-10.75 68.15-13.95L68.15-13.95ZM92.95-22.85Q94.9-25.35 97.42-26.78 99.95-28.2 102.7-28.2L102.7-28.2 101.1-19.15 98.75-19.15Q95.55-19.15 93.7-17.78 91.85-16.4 91.25-12.95L91.25-12.95 88.95 0 80.4 0 85.3-27.9 93.85-27.9 92.95-22.85ZM115.39-20.8L113.39-9.6Q113.34-9.35 113.34-8.95L113.34-8.95Q113.34-8.05 113.87-7.65 114.39-7.25 115.59-7.25L115.59-7.25 118.64-7.25 117.34 0 112.99 0Q104.59 0 104.59-7.05L104.59-7.05Q104.59-8.1 104.84-9.7L104.84-9.7 106.84-20.8 103.44-20.8 104.69-27.9 108.09-27.9 109.29-34.7 117.84-34.7 116.64-27.9 122.24-27.9 120.99-20.8 115.39-20.8ZM131.84-30.8Q129.84-30.8 128.67-31.88 127.49-32.95 127.49-34.6L127.49-34.6Q127.49-36.85 129.24-38.45 130.99-40.05 133.49-40.05L133.49-40.05Q135.49-40.05 136.64-38.98 137.79-37.9 137.79-36.2L137.79-36.2Q137.79-34 136.04-32.4 134.29-30.8 131.84-30.8L131.84-30.8ZM126.99-27.9L135.54-27.9 130.64 0 122.09 0 126.99-27.9ZM158.79-28.2Q162.99-28.2 165.39-25.85 167.79-23.5 167.79-19.3L167.79-19.3Q167.79-17.9 167.49-16.3L167.49-16.3 164.59 0 156.09 0 158.79-15.15Q158.94-16 158.94-16.65L158.94-16.65Q158.94-18.75 157.76-19.9 156.59-21.05 154.49-21.05L154.49-21.05Q151.99-21.05 150.29-19.5 148.59-17.95 148.09-15.15L148.09-15.15 148.09-15.4 145.39 0 136.84 0 141.74-27.9 150.29-27.9 149.64-24.15Q151.29-26 153.66-27.1 156.04-28.2 158.79-28.2L158.79-28.2Z" opacity="1" transform="matrix(1,0,0,1,0,0)" fill="#ffffff" class="wordmark-text-0" data-fill-palette-color="primary" id="text-0"></path></svg></g></svg></g></svg></g></svg></g></svg></g></svg></g></svg></g><g><path d="M245.816 0c68.262 0 123.6 55.338 123.6 123.6 0 68.262-55.338 123.6-123.6 123.6-55.543 0-102.53-36.637-118.111-87.064l2.793 0c15.489 48.932 61.261 84.398 115.318 84.398 66.79 0 120.934-54.144 120.934-120.934 0-66.79-54.144-120.934-120.934-120.934-54.056 0-99.828 35.466-115.318 84.398l-2.793 0c15.581-50.426 62.567-87.064 118.111-87.064z" fill="#00bee8" stroke="transparent" data-fill-palette-color="tertiary"></path></g></svg></g><defs></defs></svg><rect width="395.52" height="247.2" fill="none" stroke="none" visibility="hidden"></rect></g></svg></g></svg>